<?xml version="1.0" encoding="UTF-8" standalone="no"?>
<!-- Created with Inkscape (http://www.inkscape.org/) -->

<svg
   xmlns:dc="http://purl.org/dc/elements/1.1/"
   xmlns:cc="http://creativecommons.org/ns#"
   xmlns:rdf="http://www.w3.org/1999/02/22-rdf-syntax-ns#"
   xmlns:svg="http://www.w3.org/2000/svg"
   xmlns="http://www.w3.org/2000/svg"
   xmlns:xlink="http://www.w3.org/1999/xlink"
   xmlns:sodipodi="http://sodipodi.sourceforge.net/DTD/sodipodi-0.dtd"
   xmlns:inkscape="http://www.inkscape.org/namespaces/inkscape"
   width="297mm"
   height="210mm"
   viewBox="0 0 1052.3622 744.09448"
   id="svg2"
   version="1.1"
   inkscape:version="0.91 r13725"
   sodipodi:docname="flow.svg">
  <title
     id="title5437">v1.0</title>
  <defs
     id="defs4">
    <pattern
       inkscape:collect="always"
       xlink:href="#pattern5952"
       id="pattern6156"
       patternTransform="matrix(1.3928648,0,0,1.3928648,658.03109,986.92913)" />
    <pattern
       inkscape:collect="always"
       xlink:href="#pattern6048"
       id="pattern6074"
       patternTransform="matrix(1.3928648,0,0,1.3928648,1324.4389,817.90072)" />
    <pattern
       inkscape:collect="always"
       xlink:href="#pattern6041"
       id="pattern6071"
       patternTransform="matrix(1.3928648,0,0,1.3928648,929.5281,826.66541)" />
    <pattern
       inkscape:collect="always"
       xlink:href="#pattern6048"
       id="pattern6068"
       patternTransform="matrix(1.3928648,0,0,1.3928648,955.63728,930.58635)" />
    <pattern
       inkscape:collect="always"
       xlink:href="#pattern6041"
       id="pattern6065"
       patternTransform="matrix(1.3928648,0,0,1.3928648,596.08217,939.35104)" />
    <pattern
       inkscape:collect="always"
       xlink:href="#pattern5952"
       id="pattern6048"
       patternTransform="matrix(1.3012251,0,0,1.3012251,912.29812,950.614)" />
    <pattern
       inkscape:collect="always"
       xlink:href="#pattern5974"
       id="pattern6041"
       patternTransform="matrix(1.3012251,0,0,1.3012251,578.26738,958.80204)" />
    <pattern
       inkscape:collect="always"
       xlink:href="#pattern5840"
       id="pattern5974"
       patternTransform="matrix(1.3012251,0,0,1.3012251,578.26738,958.80204)" />
    <pattern
       inkscape:collect="always"
       xlink:href="#black_right"
       id="pattern5952"
       patternTransform="matrix(1.3012251,0,0,1.3012251,634.27212,1003.6812)" />
    <pattern
       inkscape:collect="always"
       xlink:href="#pattern5760"
       id="pattern5840"
       patternTransform="matrix(1.3012251,0,0,1.3012251,578.26738,958.80204)" />
    <pattern
       inkscape:collect="always"
       xlink:href="#pattern5765"
       id="pattern5816"
       patternTransform="translate(-25.906235,-2.2109375e-5)" />
    <pattern
       patternUnits="userSpaceOnUse"
       width="25.90625"
       height="30"
       patternTransform="translate(600.10384,861.56876)"
       id="pattern5760">
      <path
         style="color:#666666;font-style:normal;font-variant:normal;font-weight:normal;font-stretch:normal;font-size:medium;line-height:normal;font-family:sans-serif;text-indent:0;text-align:start;text-decoration:none;text-decoration-line:none;text-decoration-style:solid;text-decoration-color:#666666;letter-spacing:normal;word-spacing:normal;text-transform:none;direction:ltr;block-progression:tb;writing-mode:lr-tb;baseline-shift:baseline;text-anchor:start;white-space:normal;clip-rule:nonzero;display:inline;overflow:visible;visibility:visible;opacity:1;isolation:auto;mix-blend-mode:normal;color-interpolation:sRGB;color-interpolation-filters:linearRGB;solid-color:#666666;solid-opacity:1;fill:#ff0000;fill-opacity:1;fill-rule:evenodd;stroke:none;stroke-width:30;stroke-linecap:butt;stroke-linejoin:miter;stroke-miterlimit:4;stroke-dasharray:none;stroke-dashoffset:0;stroke-opacity:1;color-rendering:auto;image-rendering:auto;shape-rendering:auto;text-rendering:auto;enable-background:accumulate"
         d="M 0,0 8.66015,15 0,30 17.24609,30 25.90625,15 17.24609,0 0,0 Z"
         id="path5756"
         inkscape:connector-curvature="0" />
    </pattern>
    <pattern
       patternUnits="userSpaceOnUse"
       width="25.90625"
       height="30"
       patternTransform="translate(647.97969,862.72239)"
       id="pattern5765">
      <path
         inkscape:connector-curvature="0"
         id="path5758"
         d="M 0,0 8.66015,15 0,30 17.24609,30 25.90625,15 17.24609,0 0,0 Z"
         style="color:#666666;font-style:normal;font-variant:normal;font-weight:normal;font-stretch:normal;font-size:medium;line-height:normal;font-family:sans-serif;text-indent:0;text-align:start;text-decoration:none;text-decoration-line:none;text-decoration-style:solid;text-decoration-color:#666666;letter-spacing:normal;word-spacing:normal;text-transform:none;direction:ltr;block-progression:tb;writing-mode:lr-tb;baseline-shift:baseline;text-anchor:start;white-space:normal;clip-rule:nonzero;display:inline;overflow:visible;visibility:visible;opacity:1;isolation:auto;mix-blend-mode:normal;color-interpolation:sRGB;color-interpolation-filters:linearRGB;solid-color:#666666;solid-opacity:1;fill:#666666;fill-opacity:1;fill-rule:evenodd;stroke:none;stroke-width:30;stroke-linecap:butt;stroke-linejoin:miter;stroke-miterlimit:4;stroke-dasharray:none;stroke-dashoffset:0;stroke-opacity:1;color-rendering:auto;image-rendering:auto;shape-rendering:auto;text-rendering:auto;enable-background:accumulate" />
    </pattern>
    <pattern
       patternUnits="userSpaceOnUse"
       width="25.90625"
       height="30"
       patternTransform="translate(647.97968,862.72241)"
       id="black_right">
      <rect
         transform="scale(-1,1)"
         id="rect5768"
         y="0"
         x="-25.90625"
         height="30"
         width="25.90625"
         style="fill:url(#pattern5816);stroke:none" />
    </pattern>
    <filter
       inkscape:collect="always"
       style="color-interpolation-filters:sRGB"
       id="filter4385"
       x="-0.15407819"
       width="1.3081564"
       y="-0.030232758"
       height="1.0604655">
      <feGaussianBlur
         inkscape:collect="always"
         stdDeviation="8.7249036"
         id="feGaussianBlur4387" />
    </filter>
    <filter
       inkscape:collect="always"
       style="color-interpolation-filters:sRGB"
       id="filter4389"
       x="-0.094280152"
       width="1.1885603"
       y="-0.094280979"
       height="1.188562">
      <feGaussianBlur
         inkscape:collect="always"
         stdDeviation="8.7249036"
         id="feGaussianBlur4391" />
    </filter>
    <filter
       inkscape:collect="always"
       style="color-interpolation-filters:sRGB"
       id="filter4393"
       x="-0.094280979"
       width="1.188562"
       y="-0.094280984"
       height="1.188562">
      <feGaussianBlur
         inkscape:collect="always"
         stdDeviation="8.7249036"
         id="feGaussianBlur4395" />
    </filter>
    <filter
       inkscape:collect="always"
       style="color-interpolation-filters:sRGB"
       id="filter4397"
       x="-0.15407809"
       width="1.3081562"
       y="-0.03023282"
       height="1.0604656">
      <feGaussianBlur
         inkscape:collect="always"
         stdDeviation="8.7249036"
         id="feGaussianBlur4399" />
    </filter>
  </defs>
  <sodipodi:namedview
     id="base"
     pagecolor="#ffffff"
     bordercolor="#666666"
     borderopacity="1.0"
     inkscape:pageopacity="0.0"
     inkscape:pageshadow="2"
     inkscape:zoom="0.8668254"
     inkscape:cx="526.1811"
     inkscape:cy="372.04724"
     inkscape:document-units="px"
     inkscape:current-layer="layer1"
     showgrid="false"
     inkscape:window-width="1440"
     inkscape:window-height="843"
     inkscape:window-x="0"
     inkscape:window-y="0"
     inkscape:window-maximized="1" />
  <metadata
     id="metadata7">
    <rdf:RDF>
      <cc:Work
         rdf:about="">
        <dc:format>image/svg+xml</dc:format>
        <dc:type
           rdf:resource="http://purl.org/dc/dcmitype/StillImage" />
        <dc:title>v1.0</dc:title>
        <cc:license
           rdf:resource="http://creativecommons.org/licenses/by-sa/3.0/" />
      </cc:Work>
      <cc:License
         rdf:about="http://creativecommons.org/licenses/by-sa/3.0/">
        <cc:permits
           rdf:resource="http://creativecommons.org/ns#Reproduction" />
        <cc:permits
           rdf:resource="http://creativecommons.org/ns#Distribution" />
        <cc:requires
           rdf:resource="http://creativecommons.org/ns#Notice" />
        <cc:requires
           rdf:resource="http://creativecommons.org/ns#Attribution" />
        <cc:permits
           rdf:resource="http://creativecommons.org/ns#DerivativeWorks" />
        <cc:requires
           rdf:resource="http://creativecommons.org/ns#ShareAlike" />
      </cc:License>
    </rdf:RDF>
  </metadata>
  <g
     inkscape:label="Layer 1"
     inkscape:groupmode="layer"
     id="layer1"
     transform="translate(0,-308.26772)">
    <path
       style="color:#666666;font-style:normal;font-variant:normal;font-weight:normal;font-stretch:normal;font-size:medium;line-height:normal;font-family:sans-serif;text-indent:0;text-align:start;text-decoration:none;text-decoration-line:none;text-decoration-style:solid;text-decoration-color:#000000;letter-spacing:normal;word-spacing:normal;text-transform:none;direction:ltr;block-progression:tb;writing-mode:lr-tb;baseline-shift:baseline;text-anchor:start;white-space:normal;clip-rule:nonzero;display:inline;overflow:visible;visibility:visible;opacity:0.511;isolation:auto;mix-blend-mode:normal;color-interpolation:sRGB;color-interpolation-filters:linearRGB;solid-color:#000000;solid-opacity:1;fill:#000000;fill-opacity:1;fill-rule:nonzero;stroke:none;stroke-width:9.35346317;stroke-linecap:round;stroke-linejoin:round;stroke-miterlimit:4;stroke-dasharray:none;stroke-dashoffset:0;stroke-opacity:1;marker:none;color-rendering:auto;image-rendering:auto;shape-rendering:auto;text-rendering:auto;enable-background:accumulate;filter:url(#filter4389)"
       d="m 268.39844,633.60742 c -8.93198,0 -16.26953,7.33756 -16.26953,16.26953 l 0,189.5625 c 0,8.93198 7.33755,16.26758 16.26953,16.26758 l 189.5625,0 c 8.93197,0 16.26953,-7.3356 16.26953,-16.26758 l 0,-189.5625 c 0,-8.93197 -7.33756,-16.26953 -16.26953,-16.26953 l -189.5625,0 z"
       id="path4195"
       inkscape:connector-curvature="0" />
    <path
       style="color:#666666;font-style:normal;font-variant:normal;font-weight:normal;font-stretch:normal;font-size:medium;line-height:normal;font-family:sans-serif;text-indent:0;text-align:start;text-decoration:none;text-decoration-line:none;text-decoration-style:solid;text-decoration-color:#000000;letter-spacing:normal;word-spacing:normal;text-transform:none;direction:ltr;block-progression:tb;writing-mode:lr-tb;baseline-shift:baseline;text-anchor:start;white-space:normal;clip-rule:nonzero;display:inline;overflow:visible;visibility:visible;opacity:0.511;isolation:auto;mix-blend-mode:normal;color-interpolation:sRGB;color-interpolation-filters:linearRGB;solid-color:#000000;solid-opacity:1;fill:#000000;fill-opacity:1;fill-rule:nonzero;stroke:none;stroke-width:9.3534584;stroke-linecap:round;stroke-linejoin:round;stroke-miterlimit:4;stroke-dasharray:none;stroke-dashoffset:0;stroke-opacity:1;marker:none;color-rendering:auto;image-rendering:auto;shape-rendering:auto;text-rendering:auto;enable-background:accumulate;filter:url(#filter4393)"
       d="m 601.24414,520.92188 c -8.93197,0 -16.26758,7.33756 -16.26758,16.26953 l 0,189.5625 c 0,8.93196 7.33561,16.26757 16.26758,16.26757 l 189.56445,0 c 8.93197,0 16.26758,-7.33561 16.26758,-16.26757 l 0,-189.5625 c 0,-8.93197 -7.33561,-16.26953 -16.26758,-16.26953 l -189.56445,0 z"
       id="path4203"
       inkscape:connector-curvature="0" />
    <rect
       transform="scale(-1,1)"
       ry="0"
       y="342.00568"
       x="-143.9035"
       height="692.61853"
       width="135.90352"
       id="rect4205"
       style="color:#666666;display:inline;overflow:visible;visibility:visible;opacity:0.511;fill:#000000;fill-opacity:1;fill-rule:nonzero;stroke:none;stroke-width:2;stroke-linecap:round;stroke-linejoin:round;stroke-miterlimit:4;stroke-dasharray:none;stroke-dashoffset:0;stroke-opacity:1;marker:none;enable-background:accumulate;filter:url(#filter4385)" />
    <path
       style="fill:none;fill-opacity:1;fill-rule:evenodd;stroke:url(#pattern6156);stroke-width:41.78594589;stroke-linecap:butt;stroke-linejoin:miter;stroke-miterlimit:4;stroke-dasharray:none;stroke-opacity:1"
       d="m 326.69283,736.6578 -223.53072,0"
       id="path4176"
       inkscape:connector-curvature="0"
       sodipodi:nodetypes="cc" />
    <rect
       style="color:#666666;display:inline;overflow:visible;visibility:visible;opacity:0.511;fill:#000000;fill-opacity:1;fill-rule:nonzero;stroke:none;stroke-width:2;stroke-linecap:round;stroke-linejoin:round;stroke-miterlimit:4;stroke-dasharray:none;stroke-dashoffset:0;stroke-opacity:1;marker:none;enable-background:accumulate;filter:url(#filter4397)"
       id="rect4207"
       width="135.90361"
       height="692.61713"
       x="-1060.3622"
       y="342.00638"
       ry="0"
       transform="scale(-1,1)" />
    <path
       style="fill:none;fill-opacity:1;fill-rule:evenodd;stroke:url(#pattern6074);stroke-width:41.78594589;stroke-linecap:butt;stroke-linejoin:miter;stroke-miterlimit:4;stroke-dasharray:none;stroke-opacity:1"
       d="m 993.10075,567.62936 -223.53075,0"
       id="path6060"
       inkscape:connector-curvature="0"
       sodipodi:nodetypes="cc" />
    <g
       transform="matrix(1.0932152,0,0,1.0932152,-17.021271,-138.66676)"
       style="font-style:normal;font-weight:normal;font-size:35.79977036px;line-height:125%;font-family:Sans;letter-spacing:0px;word-spacing:0px;fill:#000000;fill-opacity:1;stroke:none;stroke-width:1px;stroke-linecap:butt;stroke-linejoin:miter;stroke-opacity:1"
       id="flowRoot4200">
      <path
         d="m 286.50029,479.83772 -1.36347,6.45025 4.5449,0 0,1.88788 -4.94695,0 -1.53827,7.13199 -1.92284,0 1.50331,-7.13199 -6.34537,0 -1.46835,7.13199 -1.92283,0 1.46835,-7.13199 -3.51356,0 0,-1.88788 3.93308,0 1.36347,-6.45025 -4.40505,0 0,-1.88788 4.78962,0 1.55575,-7.13198 1.92284,0 -1.53827,7.13198 6.34537,0 1.53827,-7.13198 1.92284,0 -1.53827,7.13198 3.68835,0 0,1.88788 -4.07292,0 z m -8.23325,0 -1.39843,6.45025 6.32789,0 1.36347,-6.45025 -6.29293,0 z"
         style=""
         id="path5325" />
      <path
         d="m 315.11563,495.30784 0,-11.99153 q 0,-1.8704 -0.36708,-2.90174 -0.36709,-1.03134 -1.17119,-1.48583 -0.80409,-0.45449 -2.35985,-0.45449 -2.27244,0 -3.58347,1.55575 -1.31103,1.55576 -1.31103,4.31765 l 0,10.96019 -3.14646,0 0,-14.87579 q 0,-3.30379 -0.10488,-4.03796 l 2.97166,0 q 0.0175,0.0874 0.035,0.47197 0.0175,0.38457 0.035,0.8915 0.035,0.48945 0.0699,1.8704 l 0.0524,0 q 1.08378,-1.9578 2.49969,-2.7619 1.43339,-0.82158 3.54852,-0.82158 3.1115,0 4.54489,1.55575 1.45087,1.53828 1.45087,5.10427 l 0,12.60334 -3.16395,0 z"
         style=""
         id="path5327" />
      <path
         d="m 325.44653,486.51522 q 0,3.25134 1.34598,5.01686 1.34599,1.76551 3.93308,1.76551 2.04521,0 3.26883,-0.82157 1.24111,-0.82158 1.67812,-2.08016 l 2.76189,0.78661 q -1.69559,4.47497 -7.70884,4.47497 -4.19528,0 -6.39781,-2.49969 -2.18504,-2.49969 -2.18504,-7.42915 0,-4.68474 2.18504,-7.18443 2.20253,-2.49969 6.27545,-2.49969 8.33813,0 8.33813,10.05121 l 0,0.41953 -13.49483,0 z m 10.24349,-2.41229 q -0.26221,-2.98914 -1.5208,-4.35261 -1.25858,-1.38095 -3.61843,-1.38095 -2.28993,0 -3.63591,1.53827 -1.32851,1.52079 -1.43339,4.19529 l 10.20853,0 z"
         style=""
         id="path5329" />
      <path
         d="m 350.23367,495.16799 q -1.55575,0.41953 -3.18142,0.41953 -3.77576,0 -3.77576,-4.28269 l 0,-12.62081 -2.18505,0 0,-2.28993 2.30741,0 0.92646,-4.23025 2.09764,0 0,4.23025 3.49607,0 0,2.28993 -3.49607,0 0,11.93908 q 0,1.36347 0.43701,1.92284 0.45449,0.54189 1.55575,0.54189 0.6293,0 1.81796,-0.24472 l 0,2.32488 z"
         style=""
         id="path5331" />
      <path
         d="m 367.08473,490.08121 q 0,2.67449 -2.02772,4.12536 -2.01024,1.45087 -5.64615,1.45087 -3.53104,0 -5.45388,-1.1537 -1.90535,-1.17118 -2.48221,-3.63592 l 2.77938,-0.54189 q 0.40205,1.52079 1.66063,2.23749 1.25859,0.69921 3.49608,0.69921 2.3948,0 3.49607,-0.73417 1.11874,-0.73418 1.11874,-2.20253 0,-1.11874 -0.76914,-1.81795 -0.76913,-0.69922 -2.48221,-1.15371 l -2.25496,-0.59433 q -2.70946,-0.69921 -3.86316,-1.36347 -1.13622,-0.68173 -1.783,-1.64315 -0.64677,-0.96142 -0.64677,-2.35985 0,-2.58709 1.83544,-3.93308 1.85291,-1.36347 5.38395,-1.36347 3.12898,0 4.96442,1.10127 1.85292,1.10126 2.34237,3.53103 l -2.83182,0.34961 q -0.26221,-1.25859 -1.41591,-1.92284 -1.13622,-0.68174 -3.05906,-0.68174 -2.13261,0 -3.14647,0.64678 -1.01386,0.64677 -1.01386,1.9578 0,0.80409 0.41953,1.3285 0.41953,0.52441 1.24111,0.8915 0.82157,0.36709 3.46111,1.01386 2.49969,0.62929 3.60095,1.17118 1.10126,0.52442 1.73055,1.17119 0.64678,0.64677 0.99639,1.50331 0.3496,0.83906 0.3496,1.92284 z"
         style=""
         id="path5333" />
      <path
         d="m 378.0624,495.16799 q -1.55575,0.41953 -3.18143,0.41953 -3.77575,0 -3.77575,-4.28269 l 0,-12.62081 -2.18505,0 0,-2.28993 2.30741,0 0.92646,-4.23025 2.09764,0 0,4.23025 3.49607,0 0,2.28993 -3.49607,0 0,11.93908 q 0,1.36347 0.43701,1.92284 0.45449,0.54189 1.55575,0.54189 0.62929,0 1.81796,-0.24472 l 0,2.32488 z"
         style=""
         id="path5335" />
      <path
         d="m 385.54399,495.65744 q -2.8493,0 -4.28269,-1.50331 -1.43339,-1.50331 -1.43339,-4.12536 0,-2.9367 1.92284,-4.50993 1.94032,-1.57324 6.24049,-1.67812 l 4.24773,-0.0699 0,-1.03134 q 0,-2.30741 -0.9789,-3.30379 -0.9789,-0.99638 -3.07655,-0.99638 -2.11512,0 -3.07654,0.7167 -0.96142,0.71669 -1.1537,2.28992 l -3.28631,-0.29716 q 0.8041,-5.10427 7.58647,-5.10427 3.566,0 5.36647,1.64316 1.80048,1.62567 1.80048,4.71969 l 0,8.14585 q 0,1.39843 0.36709,2.11512 0.36709,0.69922 1.39843,0.69922 0.45449,0 1.03134,-0.12237 l 0,1.9578 q -1.18867,0.27969 -2.42977,0.27969 -1.74804,0 -2.55213,-0.90898 -0.78662,-0.92646 -0.8915,-2.88426 l -0.10488,0 q -1.20615,2.16757 -2.81434,3.07654 -1.59071,0.8915 -3.88064,0.8915 z m 0.71669,-2.35985 q 1.73056,0 3.07655,-0.78661 1.34598,-0.78662 2.11512,-2.15009 0.78662,-1.38094 0.78662,-2.83181 l 0,-1.55576 -3.44363,0.0699 q -2.22001,0.035 -3.37371,0.45449 -1.13623,0.41952 -1.74804,1.29354 -0.61181,0.87402 -0.61181,2.28993 0,1.53827 0.82158,2.37733 0.83905,0.83905 2.37732,0.83905 z"
         style=""
         id="path5337" />
      <path
         d="m 407.91884,495.16799 q -1.55575,0.41953 -3.18142,0.41953 -3.77576,0 -3.77576,-4.28269 l 0,-12.62081 -2.18504,0 0,-2.28993 2.3074,0 0.92646,-4.23025 2.09765,0 0,4.23025 3.49607,0 0,2.28993 -3.49607,0 0,11.93908 q 0,1.36347 0.437,1.92284 0.45449,0.54189 1.55576,0.54189 0.62929,0 1.81795,-0.24472 l 0,2.32488 z"
         style=""
         id="path5339" />
      <path
         d="m 419.68312,487.19695 0,-2.79686 8.74018,0 0,2.79686 -8.74018,0 z"
         style=""
         id="path5341" />
      <path
         d="m 439.7331,495.16799 q -1.55575,0.41953 -3.18143,0.41953 -3.77575,0 -3.77575,-4.28269 l 0,-12.62081 -2.18505,0 0,-2.28993 2.30741,0 0.92646,-4.23025 2.09764,0 0,4.23025 3.49607,0 0,2.28993 -3.49607,0 0,11.93908 q 0,1.36347 0.43701,1.92284 0.45449,0.54189 1.55575,0.54189 0.62929,0 1.81796,-0.24472 l 0,2.32488 z"
         style=""
         id="path5343" />
      <path
         d="m 445.46665,476.39409 0,11.99152 q 0,1.8704 0.36708,2.90174 0.36709,1.03134 1.17119,1.48583 0.80409,0.45449 2.35985,0.45449 2.27244,0 3.58347,-1.55575 1.31103,-1.55575 1.31103,-4.31765 l 0,-10.96018 3.14646,0 0,14.87578 q 0,3.30379 0.10488,4.03797 l -2.97166,0 q -0.0175,-0.0874 -0.035,-0.47197 -0.0175,-0.38457 -0.0524,-0.87402 -0.0175,-0.50693 -0.0524,-1.88788 l -0.0524,0 q -1.08379,1.9578 -2.51717,2.77938 -1.41591,0.80409 -3.53104,0.80409 -3.1115,0 -4.56237,-1.53827 -1.43339,-1.55575 -1.43339,-5.12174 l 0,-12.60334 3.16395,0 z"
         style=""
         id="path5345" />
      <path
         d="m 462.31772,495.30784 0,-25.94085 3.14646,0 0,25.94085 -3.14646,0 z"
         style=""
         id="path5347" />
      <path
         d="m 486.28328,485.76356 q 0,9.89388 -6.95718,9.89388 -4.37009,0 -5.8734,-3.2863 l -0.0874,0 q 0.0699,0.13984 0.0699,2.97166 l 0,7.39419 -3.14647,0 0,-22.47974 q 0,-2.91922 -0.10488,-3.86316 l 3.04158,0 q 0.0175,0.0699 0.0524,0.50693 0.035,0.41953 0.0699,1.31103 0.0524,0.89149 0.0524,1.22362 l 0.0699,0 q 0.83906,-1.74803 2.22,-2.55213 1.38095,-0.82158 3.63592,-0.82158 3.49607,0 5.22663,2.34237 1.73055,2.34237 1.73055,7.35923 z m -3.30379,0.0699 q 0,-3.95056 -1.0663,-5.64615 -1.0663,-1.6956 -3.39119,-1.6956 -1.8704,0 -2.9367,0.78662 -1.04882,0.78661 -1.60819,2.46473 -0.54189,1.66063 -0.54189,4.33513 0,3.72331 1.18866,5.48883 1.18867,1.76552 3.86316,1.76552 2.34237,0 3.40867,-1.71308 1.08378,-1.73056 1.08378,-5.786 z"
         style=""
         id="path5349" />
      <path
         d="m 492.62866,486.51522 q 0,3.25134 1.34598,5.01686 1.34599,1.76551 3.93308,1.76551 2.0452,0 3.26883,-0.82157 1.24111,-0.82158 1.67811,-2.08016 l 2.7619,0.78661 q -1.69559,4.47497 -7.70884,4.47497 -4.19528,0 -6.39781,-2.49969 -2.18504,-2.49969 -2.18504,-7.42915 0,-4.68474 2.18504,-7.18443 2.20253,-2.49969 6.27545,-2.49969 8.33813,0 8.33813,10.05121 l 0,0.41953 -13.49483,0 z m 10.24348,-2.41229 q -0.2622,-2.98914 -1.52079,-4.35261 -1.25858,-1.38095 -3.61843,-1.38095 -2.28993,0 -3.63591,1.53827 -1.32851,1.52079 -1.43339,4.19529 l 10.20852,0 z"
         style=""
         id="path5351" />
      <path
         d="m 522.15298,495.30784 0,-11.99153 q 0,-1.8704 -0.36708,-2.90174 -0.36709,-1.03134 -1.17119,-1.48583 -0.80409,-0.45449 -2.35985,-0.45449 -2.27244,0 -3.58347,1.55575 -1.31103,1.55576 -1.31103,4.31765 l 0,10.96019 -3.14646,0 0,-14.87579 q 0,-3.30379 -0.10488,-4.03796 l 2.97166,0 q 0.0175,0.0874 0.035,0.47197 0.0175,0.38457 0.035,0.8915 0.035,0.48945 0.0699,1.8704 l 0.0524,0 q 1.08378,-1.9578 2.49969,-2.7619 1.43339,-0.82158 3.54852,-0.82158 3.1115,0 4.54489,1.55575 1.45087,1.53828 1.45087,5.10427 l 0,12.60334 -3.16395,0 z"
         style=""
         id="path5353" />
      <path
         d="m 540.78704,502.89431 0,-33.52732 2.90174,0 0,33.52732 -2.90174,0 z"
         style=""
         id="path5355" />
      <path
         d="m 563.12694,478.68402 0,16.62382 -3.14647,0 0,-16.62382 -2.65701,0 0,-2.28993 2.65701,0 0,-2.1326 q 0,-2.5871 1.13623,-3.72332 1.13622,-1.13622 3.47859,-1.13622 1.31102,0 2.22,0.20976 l 0,2.39481 q -0.78661,-0.13984 -1.39843,-0.13984 -1.20614,0 -1.74803,0.61181 -0.54189,0.61181 -0.54189,2.22 l 0,1.6956 3.68835,0 0,2.28993 -3.68835,0 z"
         style=""
         id="path5357" />
      <path
         d="m 576.3246,502.73699 q -3.09403,0 -4.92946,-1.22363 -1.83544,-1.20614 -2.35985,-3.44363 l 3.16394,-0.45449 q 0.31465,1.31103 1.38095,2.01024 1.08378,0.7167 2.83182,0.7167 4.70221,0 4.70221,-5.50631 l 0,-3.04159 -0.035,0 q -0.89149,1.81796 -2.44725,2.74442 -1.55575,0.90898 -3.63591,0.90898 -3.47859,0 -5.12174,-2.30741 -1.62568,-2.30741 -1.62568,-7.25435 0,-5.01686 1.74804,-7.39419 1.76551,-2.39481 5.34899,-2.39481 2.01024,0 3.47859,0.92646 1.48583,0.90898 2.28992,2.60458 l 0.035,0 q 0,-0.52442 0.0699,-1.81796 0.0699,-1.29355 0.13984,-1.41591 l 2.98914,0 q -0.10488,0.94394 -0.10488,3.9156 l 0,14.45625 q 0,7.97105 -7.9186,7.97105 z m 4.78961,-16.88603 q 0,-2.3074 -0.62929,-3.96804 -0.62929,-1.67811 -1.78299,-2.55213 -1.13623,-0.8915 -2.5871,-0.8915 -2.41229,0 -3.51355,1.74804 -1.10126,1.74803 -1.10126,5.66363 0,3.88064 1.03134,5.57624 1.03134,1.69559 3.53103,1.69559 1.48583,0 2.63954,-0.87402 1.1537,-0.87401 1.78299,-2.49969 0.62929,-1.64315 0.62929,-3.89812 z"
         style=""
         id="path5359" />
      <path
         d="m 589.15518,495.30784 0,-14.5087 q 0,-1.99276 -0.10488,-4.40505 l 2.97166,0 q 0.13985,3.21639 0.13985,3.86316 l 0.0699,0 q 0.75165,-2.42977 1.73055,-3.32127 0.9789,-0.8915 2.7619,-0.8915 0.62929,0 1.27606,0.17481 l 0,2.88425 q -0.62929,-0.1748 -1.67811,-0.1748 -1.9578,0 -2.98914,1.6956 -1.03134,1.67811 -1.03134,4.82457 l 0,9.85893 -3.14647,0 z"
         style=""
         id="path5361" />
      <path
         d="m 603.45413,486.51522 q 0,3.25134 1.34598,5.01686 1.34599,1.76551 3.93308,1.76551 2.0452,0 3.26883,-0.82157 1.24111,-0.82158 1.67811,-2.08016 l 2.7619,0.78661 q -1.69559,4.47497 -7.70884,4.47497 -4.19528,0 -6.39781,-2.49969 -2.18504,-2.49969 -2.18504,-7.42915 0,-4.68474 2.18504,-7.18443 2.20253,-2.49969 6.27545,-2.49969 8.33813,0 8.33813,10.05121 l 0,0.41953 -13.49483,0 z m 10.24348,-2.41229 q -0.2622,-2.98914 -1.52079,-4.35261 -1.25858,-1.38095 -3.61843,-1.38095 -2.28993,0 -3.63591,1.53827 -1.32851,1.52079 -1.43339,4.19529 l 10.20852,0 z"
         style=""
         id="path5363" />
      <path
         d="m 636.96397,485.76356 q 0,9.89388 -6.95718,9.89388 -4.37009,0 -5.8734,-3.2863 l -0.0874,0 q 0.0699,0.13984 0.0699,2.97166 l 0,7.39419 -3.14646,0 0,-22.47974 q 0,-2.91922 -0.10488,-3.86316 l 3.04158,0 q 0.0175,0.0699 0.0524,0.50693 0.035,0.41953 0.0699,1.31103 0.0524,0.89149 0.0524,1.22362 l 0.0699,0 q 0.83906,-1.74803 2.22001,-2.55213 1.38095,-0.82158 3.63591,-0.82158 3.49607,0 5.22663,2.34237 1.73055,2.34237 1.73055,7.35923 z m -3.30378,0.0699 q 0,-3.95056 -1.0663,-5.64615 -1.06631,-1.6956 -3.39119,-1.6956 -1.8704,0 -2.9367,0.78662 -1.04882,0.78661 -1.6082,2.46473 -0.54189,1.66063 -0.54189,4.33513 0,3.72331 1.18867,5.48883 1.18866,1.76552 3.86316,1.76552 2.34236,0 3.40867,-1.71308 1.08378,-1.73056 1.08378,-5.786 z"
         style=""
         id="path5365" />
      <path
         d="m 653.2207,485.76356 q 0,3.77576 1.18867,5.59371 1.18866,1.81796 3.58347,1.81796 1.67811,0 2.79686,-0.90898 1.13622,-0.90898 1.39843,-2.79685 l 3.18142,0.20976 q -0.36709,2.72694 -2.32489,4.35261 -1.9578,1.62567 -4.96442,1.62567 -3.96804,0 -6.06568,-2.49969 -2.08016,-2.51717 -2.08016,-7.32427 0,-4.77214 2.09764,-7.27183 2.09764,-2.51717 6.01324,-2.51717 2.90174,0 4.8071,1.50331 1.92284,1.50331 2.41229,4.14285 l -3.23387,0.24472 q -0.24472,-1.57323 -1.2411,-2.49969 -0.99638,-0.92646 -2.83182,-0.92646 -2.49969,0 -3.61843,1.66064 -1.11875,1.66063 -1.11875,5.59371 z"
         style=""
         id="path5367" />
      <path
         d="m 671.80231,476.39409 0,11.99152 q 0,1.8704 0.36709,2.90174 0.36708,1.03134 1.17118,1.48583 0.8041,0.45449 2.35985,0.45449 2.27244,0 3.58347,-1.55575 1.31103,-1.55575 1.31103,-4.31765 l 0,-10.96018 3.14646,0 0,14.87578 q 0,3.30379 0.10488,4.03797 l -2.97166,0 q -0.0175,-0.0874 -0.035,-0.47197 -0.0175,-0.38457 -0.0524,-0.87402 -0.0175,-0.50693 -0.0524,-1.88788 l -0.0524,0 q -1.08378,1.9578 -2.51717,2.77938 -1.41591,0.80409 -3.53103,0.80409 -3.11151,0 -4.56238,-1.53827 -1.43339,-1.55575 -1.43339,-5.12174 l 0,-12.60334 3.16395,0 z"
         style=""
         id="path5369" />
      <path
         d="m 704.6479,485.76356 q 0,9.89388 -6.95718,9.89388 -4.37009,0 -5.8734,-3.2863 l -0.0874,0 q 0.0699,0.13984 0.0699,2.97166 l 0,7.39419 -3.14646,0 0,-22.47974 q 0,-2.91922 -0.10488,-3.86316 l 3.04158,0 q 0.0175,0.0699 0.0524,0.50693 0.035,0.41953 0.0699,1.31103 0.0524,0.89149 0.0524,1.22362 l 0.0699,0 q 0.83906,-1.74803 2.22001,-2.55213 1.38095,-0.82158 3.63591,-0.82158 3.49607,0 5.22663,2.34237 1.73055,2.34237 1.73055,7.35923 z m -3.30378,0.0699 q 0,-3.95056 -1.0663,-5.64615 -1.06631,-1.6956 -3.39119,-1.6956 -1.8704,0 -2.9367,0.78662 -1.04883,0.78661 -1.6082,2.46473 -0.54189,1.66063 -0.54189,4.33513 0,3.72331 1.18867,5.48883 1.18866,1.76552 3.86316,1.76552 2.34236,0 3.40866,-1.71308 1.08379,-1.73056 1.08379,-5.786 z"
         style=""
         id="path5371" />
      <path
         d="m 722.77504,490.08121 q 0,2.67449 -2.02772,4.12536 -2.01024,1.45087 -5.64616,1.45087 -3.53103,0 -5.45387,-1.1537 -1.90536,-1.17118 -2.48221,-3.63592 l 2.77938,-0.54189 q 0.40205,1.52079 1.66063,2.23749 1.25859,0.69921 3.49607,0.69921 2.39481,0 3.49607,-0.73417 1.11875,-0.73418 1.11875,-2.20253 0,-1.11874 -0.76914,-1.81795 -0.76913,-0.69922 -2.48221,-1.15371 l -2.25496,-0.59433 q -2.70946,-0.69921 -3.86316,-1.36347 -1.13623,-0.68173 -1.783,-1.64315 -0.64677,-0.96142 -0.64677,-2.35985 0,-2.58709 1.83543,-3.93308 1.85292,-1.36347 5.38395,-1.36347 3.12899,0 4.96443,1.10127 1.85291,1.10126 2.34236,3.53103 l -2.83181,0.34961 q -0.26221,-1.25859 -1.41591,-1.92284 -1.13623,-0.68174 -3.05907,-0.68174 -2.1326,0 -3.14646,0.64678 -1.01386,0.64677 -1.01386,1.9578 0,0.80409 0.41953,1.3285 0.41953,0.52441 1.2411,0.8915 0.82158,0.36709 3.46111,1.01386 2.49969,0.62929 3.60096,1.17118 1.10126,0.52442 1.73055,1.17119 0.64678,0.64677 0.99638,1.50331 0.34961,0.83906 0.34961,1.92284 z"
         style=""
         id="path5373" />
    </g>
    <path
       inkscape:connector-curvature="0"
       id="path6062"
       d="m 745.79887,680.31498 192.91259,0"
       style="fill:none;fill-rule:evenodd;stroke:url(#pattern6071);stroke-width:41.78594589;stroke-linecap:butt;stroke-linejoin:miter;stroke-miterlimit:4;stroke-dasharray:none;stroke-opacity:1"
       sodipodi:nodetypes="cc" />
    <path
       sodipodi:nodetypes="cc"
       inkscape:connector-curvature="0"
       id="path6046"
       d="m 624.29902,680.31498 -223.53071,0"
       style="fill:none;fill-opacity:1;fill-rule:evenodd;stroke:url(#pattern6068);stroke-width:41.78594589;stroke-linecap:butt;stroke-linejoin:miter;stroke-miterlimit:4;stroke-dasharray:none;stroke-opacity:1" />
    <path
       sodipodi:nodetypes="cc"
       style="fill:none;fill-rule:evenodd;stroke:url(#pattern6065);stroke-width:41.78594589;stroke-linecap:butt;stroke-linejoin:miter;stroke-miterlimit:4;stroke-dasharray:none;stroke-opacity:1"
       d="m 412.35293,793.00061 538.19079,0"
       id="path5830"
       inkscape:connector-curvature="0" />
    <g
       id="g5120">
      <g
         id="g5117">
        <rect
           style="color:#666666;display:inline;overflow:visible;visibility:visible;opacity:1;fill:#c2ffac;fill-opacity:1;fill-rule:nonzero;stroke:#000000;stroke-width:9.35346317;stroke-linecap:round;stroke-linejoin:round;stroke-miterlimit:4;stroke-dasharray:none;stroke-dashoffset:0;stroke-opacity:1;marker:none;enable-background:accumulate"
           id="rect4150"
           width="212.74698"
           height="212.74698"
           x="248.8063"
           y="630.28418"
           ry="11.591987" />
      </g>
      <g
         transform="matrix(1.0932152,0,0,1.0932152,25.190933,-64.942808)"
         style="font-style:normal;font-weight:normal;font-size:35.79976654px;line-height:125%;font-family:Sans;letter-spacing:0px;word-spacing:0px;fill:#000000;fill-opacity:1;stroke:none;stroke-width:1px;stroke-linecap:butt;stroke-linejoin:miter;stroke-opacity:1"
         id="flowRoot6000">
        <path
           d="m 261.47207,744.64768 0,-11.99153 q 0,-1.8704 -0.36708,-2.90174 -0.36709,-1.03134 -1.17119,-1.48583 -0.80409,-0.45449 -2.35985,-0.45449 -2.27244,0 -3.58347,1.55576 -1.31102,1.55575 -1.31102,4.31764 l 0,10.96019 -3.14647,0 0,-14.87579 q 0,-3.30378 -0.10488,-4.03796 l 2.97166,0 q 0.0175,0.0874 0.035,0.47197 0.0175,0.38457 0.035,0.8915 0.035,0.48945 0.0699,1.8704 l 0.0524,0 q 1.08379,-1.9578 2.49969,-2.7619 1.43339,-0.82158 3.54852,-0.82158 3.1115,0 4.54489,1.55576 1.45087,1.53827 1.45087,5.10426 l 0,12.60334 -3.16395,0 z"
           style=""
           id="path5299" />
        <path
           d="m 271.80296,735.85506 q 0,3.25134 1.34599,5.01686 1.34599,1.76551 3.93308,1.76551 2.0452,0 3.26883,-0.82157 1.2411,-0.82158 1.67811,-2.08016 l 2.7619,0.78661 q -1.6956,4.47497 -7.70884,4.47497 -4.19528,0 -6.39781,-2.49969 -2.18504,-2.49969 -2.18504,-7.42915 0,-4.68473 2.18504,-7.18442 2.20253,-2.4997 6.27545,-2.4997 8.33813,0 8.33813,10.05121 l 0,0.41953 -13.49484,0 z m 10.24349,-2.41229 q -0.2622,-2.98914 -1.52079,-4.35261 -1.25858,-1.38095 -3.61843,-1.38095 -2.28993,0 -3.63592,1.53827 -1.3285,1.52079 -1.43339,4.19529 l 10.20853,0 z"
           style=""
           id="path5301" />
        <path
           d="m 296.59011,744.50783 q -1.55575,0.41953 -3.18143,0.41953 -3.77575,0 -3.77575,-4.28269 l 0,-12.62081 -2.18505,0 0,-2.28993 2.30741,0 0.92646,-4.23024 2.09764,0 0,4.23024 3.49607,0 0,2.28993 -3.49607,0 0,11.93908 q 0,1.36347 0.43701,1.92284 0.45449,0.54189 1.55575,0.54189 0.62929,0 1.81796,-0.24472 l 0,2.32488 z"
           style=""
           id="path5303" />
        <path
           d="m 313.44117,739.42105 q 0,2.67449 -2.02772,4.12536 -2.01024,1.45087 -5.64616,1.45087 -3.53103,0 -5.45387,-1.1537 -1.90536,-1.17118 -2.48221,-3.63591 l 2.77938,-0.5419 q 0.40205,1.5208 1.66063,2.23749 1.25859,0.69921 3.49607,0.69921 2.39481,0 3.49607,-0.73417 1.11875,-0.73418 1.11875,-2.20253 0,-1.11874 -0.76914,-1.81795 -0.76914,-0.69922 -2.48221,-1.15371 l -2.25497,-0.59433 q -2.70945,-0.69921 -3.86315,-1.36347 -1.13623,-0.68173 -1.783,-1.64315 -0.64677,-0.96142 -0.64677,-2.35985 0,-2.58709 1.83543,-3.93308 1.85292,-1.36346 5.38395,-1.36346 3.12899,0 4.96442,1.10126 1.85292,1.10126 2.34237,3.53103 l -2.83182,0.34961 q -0.2622,-1.25859 -1.4159,-1.92284 -1.13623,-0.68174 -3.05907,-0.68174 -2.1326,0 -3.14646,0.64678 -1.01386,0.64677 -1.01386,1.9578 0,0.80409 0.41953,1.3285 0.41953,0.52441 1.2411,0.8915 0.82158,0.36709 3.46111,1.01386 2.49969,0.62929 3.60096,1.17119 1.10126,0.52441 1.73055,1.17118 0.64677,0.64677 0.99638,1.50331 0.34961,0.83906 0.34961,1.92284 z"
           style=""
           id="path5305" />
        <path
           d="m 324.41883,744.50783 q -1.55575,0.41953 -3.18142,0.41953 -3.77576,0 -3.77576,-4.28269 l 0,-12.62081 -2.18504,0 0,-2.28993 2.30741,0 0.92645,-4.23024 2.09765,0 0,4.23024 3.49607,0 0,2.28993 -3.49607,0 0,11.93908 q 0,1.36347 0.43701,1.92284 0.45449,0.54189 1.55575,0.54189 0.62929,0 1.81795,-0.24472 l 0,2.32488 z"
           style=""
           id="path5307" />
        <path
           d="m 331.90043,744.99728 q -2.8493,0 -4.28269,-1.50331 -1.43339,-1.50331 -1.43339,-4.12536 0,-2.9367 1.92284,-4.50993 1.94032,-1.57324 6.24049,-1.67812 l 4.24772,-0.0699 0,-1.03134 q 0,-2.30741 -0.9789,-3.30379 -0.9789,-0.99638 -3.07654,-0.99638 -2.11512,0 -3.07654,0.7167 -0.96142,0.71669 -1.15371,2.28992 l -3.2863,-0.29716 q 0.80409,-5.10427 7.58647,-5.10427 3.56599,0 5.36647,1.64316 1.80048,1.62567 1.80048,4.71969 l 0,8.14585 q 0,1.39843 0.36708,2.11512 0.36709,0.69922 1.39843,0.69922 0.45449,0 1.03134,-0.12237 l 0,1.9578 q -1.18866,0.27969 -2.42977,0.27969 -1.74803,0 -2.55213,-0.90898 -0.78661,-0.92646 -0.8915,-2.88426 l -0.10488,0 q -1.20614,2.16757 -2.81434,3.07654 -1.59071,0.8915 -3.88063,0.8915 z m 0.71669,-2.35985 q 1.73056,0 3.07654,-0.78661 1.34599,-0.78662 2.11513,-2.15009 0.78661,-1.38094 0.78661,-2.83181 l 0,-1.55575 -3.44363,0.0699 q -2.22,0.035 -3.37371,0.45449 -1.13622,0.41953 -1.74803,1.29354 -0.61181,0.87402 -0.61181,2.28993 0,1.53827 0.82157,2.37733 0.83906,0.83905 2.37733,0.83905 z"
           style=""
           id="path5309" />
        <path
           d="m 354.27528,744.50783 q -1.55575,0.41953 -3.18142,0.41953 -3.77576,0 -3.77576,-4.28269 l 0,-12.62081 -2.18505,0 0,-2.28993 2.30741,0 0.92646,-4.23024 2.09764,0 0,4.23024 3.49607,0 0,2.28993 -3.49607,0 0,11.93908 q 0,1.36347 0.43701,1.92284 0.45449,0.54189 1.55575,0.54189 0.6293,0 1.81796,-0.24472 l 0,2.32488 z"
           style=""
           id="path5311" />
      </g>
    </g>
    <g
       id="g5128">
      <rect
         style="color:#666666;display:inline;overflow:visible;visibility:visible;opacity:1;fill:#c2ffac;fill-opacity:1;fill-rule:nonzero;stroke:#000000;stroke-width:9.3534584;stroke-linecap:round;stroke-linejoin:round;stroke-miterlimit:4;stroke-dasharray:none;stroke-dashoffset:0;stroke-opacity:1;marker:none;enable-background:accumulate"
         id="rect4158"
         width="212.74699"
         height="212.74672"
         x="581.65277"
         y="517.59875"
         ry="11.591973" />
      <g
         transform="matrix(1.0932152,0,0,1.0932152,22.278461,-63.415671)"
         style="font-style:normal;font-weight:normal;font-size:35.79976654px;line-height:125%;font-family:Sans;letter-spacing:0px;word-spacing:0px;fill:#000000;fill-opacity:1;stroke:none;stroke-width:1px;stroke-linecap:butt;stroke-linejoin:miter;stroke-opacity:1"
         id="flowRoot4218">
        <path
           d="m 574.9647,621.38909 0,16.62382 -3.14646,0 0,-16.62382 -2.65701,0 0,-2.28992 2.65701,0 0,-2.13261 q 0,-2.58709 1.13622,-3.72331 1.13623,-1.13623 3.47859,-1.13623 1.31103,0 2.22001,0.20977 l 0,2.39481 q -0.78662,-0.13985 -1.39843,-0.13985 -1.20614,0 -1.74803,0.61182 -0.5419,0.61181 -0.5419,2.22 l 0,1.6956 3.68836,0 0,2.28992 -3.68836,0 z"
           style=""
           id="path5314" />
        <path
           d="m 588.16237,645.44206 q -3.09402,0 -4.92946,-1.22362 -1.83543,-1.20615 -2.35985,-3.44363 l 3.16395,-0.45449 q 0.31465,1.31102 1.38095,2.01024 1.08378,0.71669 2.83181,0.71669 4.70222,0 4.70222,-5.50631 l 0,-3.04158 -0.035,0 q -0.8915,1.81796 -2.44725,2.74441 -1.55575,0.90898 -3.63591,0.90898 -3.47859,0 -5.12175,-2.3074 -1.62567,-2.30741 -1.62567,-7.25435 0,-5.01686 1.74803,-7.39419 1.76552,-2.39481 5.34899,-2.39481 2.01024,0 3.47859,0.92646 1.48583,0.90898 2.28993,2.60457 l 0.035,0 q 0,-0.52441 0.0699,-1.81796 0.0699,-1.29354 0.13985,-1.4159 l 2.98914,0 q -0.10489,0.94393 -0.10489,3.9156 l 0,14.45625 q 0,7.97104 -7.9186,7.97104 z m 4.78962,-16.88602 q 0,-2.30741 -0.62929,-3.96804 -0.6293,-1.67812 -1.783,-2.55213 -1.13622,-0.8915 -2.58709,-0.8915 -2.41229,0 -3.51355,1.74803 -1.10127,1.74804 -1.10127,5.66364 0,3.88064 1.03135,5.57623 1.03134,1.6956 3.53103,1.6956 1.48583,0 2.63953,-0.87402 1.1537,-0.87402 1.783,-2.49969 0.62929,-1.64316 0.62929,-3.89812 z"
           style=""
           id="path5316" />
        <path
           d="m 600.99295,638.01291 0,-14.50869 q 0,-1.99277 -0.10488,-4.40505 l 2.97166,0 q 0.13984,3.21638 0.13984,3.86315 l 0.0699,0 q 0.75166,-2.42977 1.73056,-3.32126 0.9789,-0.8915 2.7619,-0.8915 0.62929,0 1.27606,0.1748 l 0,2.88426 q -0.62929,-0.1748 -1.67811,-0.1748 -1.9578,0 -2.98914,1.69559 -1.03134,1.67812 -1.03134,4.82458 l 0,9.85892 -3.14647,0 z"
           style=""
           id="path5318" />
        <path
           d="m 615.29189,629.22029 q 0,3.25135 1.34598,5.01686 1.34599,1.76552 3.93308,1.76552 2.0452,0 3.26883,-0.82158 1.2411,-0.82157 1.67811,-2.08016 l 2.7619,0.78662 q -1.69559,4.47497 -7.70884,4.47497 -4.19528,0 -6.39781,-2.49969 -2.18504,-2.49969 -2.18504,-7.42915 0,-4.68474 2.18504,-7.18443 2.20253,-2.49969 6.27545,-2.49969 8.33813,0 8.33813,10.0512 l 0,0.41953 -13.49483,0 z m 10.24348,-2.41229 q -0.2622,-2.98914 -1.52079,-4.35261 -1.25858,-1.38094 -3.61843,-1.38094 -2.28993,0 -3.63591,1.53827 -1.32851,1.52079 -1.43339,4.19528 l 10.20852,0 z"
           style=""
           id="path5320" />
        <path
           d="m 648.80173,628.46864 q 0,9.89388 -6.95718,9.89388 -4.37009,0 -5.8734,-3.28631 l -0.0874,0 q 0.0699,0.13984 0.0699,2.97166 l 0,7.39419 -3.14647,0 0,-22.47974 q 0,-2.91922 -0.10488,-3.86315 l 3.04158,0 q 0.0175,0.0699 0.0524,0.50693 0.035,0.41952 0.0699,1.31102 0.0524,0.8915 0.0524,1.22363 l 0.0699,0 q 0.83905,-1.74804 2.22,-2.55213 1.38095,-0.82158 3.63592,-0.82158 3.49607,0 5.22662,2.34237 1.73056,2.34236 1.73056,7.35923 z m -3.30379,0.0699 q 0,-3.95056 -1.0663,-5.64616 -1.0663,-1.69559 -3.39119,-1.69559 -1.8704,0 -2.9367,0.78661 -1.04882,0.78662 -1.60819,2.46473 -0.54189,1.66064 -0.54189,4.33513 0,3.72332 1.18866,5.48883 1.18866,1.76552 3.86316,1.76552 2.34237,0 3.40867,-1.71308 1.08378,-1.73055 1.08378,-5.78599 z"
           style=""
           id="path5322" />
      </g>
    </g>
    <g
       id="g5142">
      <rect
         transform="scale(-1,1)"
         ry="0"
         y="334.00568"
         x="-135.9035"
         height="692.61853"
         width="135.90352"
         id="rect4174"
         style="color:#666666;display:inline;overflow:visible;visibility:visible;opacity:1;fill:#666666;fill-opacity:1;fill-rule:nonzero;stroke:none;stroke-width:2;stroke-linecap:round;stroke-linejoin:round;stroke-miterlimit:4;stroke-dasharray:none;stroke-dashoffset:0;stroke-opacity:1;marker:none;enable-background:accumulate" />
      <g
         transform="matrix(0,-1.3928648,1.3928648,0,-113.0578,1067.8116)"
         style="font-style:normal;font-weight:normal;font-size:40px;line-height:125%;font-family:Sans;letter-spacing:0px;word-spacing:0px;fill:#ffffff;fill-opacity:1;stroke:none;stroke-width:1px;stroke-linecap:butt;stroke-linejoin:miter;stroke-opacity:1"
         id="flowRoot4184">
        <path
           d="m 126.85352,140.29665 0,-27.51953 20.8789,0 0,3.04687 -17.14844,0 0,8.82813 15.97657,0 0,3.00781 -15.97657,0 0,9.58985 17.94922,0 0,3.04687 -21.67968,0 z"
           style=""
           id="path5376" />
        <path
           d="m 152.9668,114.67165 0,-3.35937 3.51562,0 0,3.35937 -3.51562,0 z m 0,25.625 0,-21.13281 3.51562,0 0,21.13281 -3.51562,0 z"
           style=""
           id="path5378" />
        <path
           d="m 175.31055,140.29665 0,-13.39844 q 0,-2.08984 -0.41016,-3.24218 -0.41016,-1.15235 -1.30859,-1.66016 -0.89844,-0.50781 -2.63672,-0.50781 -2.53906,0 -4.00391,1.73828 -1.46484,1.73828 -1.46484,4.82422 l 0,12.24609 -3.51563,0 0,-16.62109 q 0,-3.69141 -0.11718,-4.51172 l 3.32031,0 q 0.0195,0.0977 0.0391,0.52734 0.0195,0.42969 0.0391,0.9961 0.0391,0.54687 0.0781,2.08984 l 0.0586,0 q 1.21094,-2.1875 2.79297,-3.08594 1.60156,-0.91797 3.96484,-0.91797 3.47657,0 5.07813,1.73828 1.62109,1.71875 1.62109,5.70313 l 0,14.08203 -3.53515,0 z"
           style=""
           id="path5380" />
        <path
           d="m 192.16602,148.59743 q -3.45704,0 -5.50782,-1.36719 -2.05078,-1.34765 -2.63672,-3.84765 l 3.53516,-0.50781 q 0.35156,1.46484 1.54297,2.24609 1.21094,0.80078 3.16406,0.80078 5.25391,0 5.25391,-6.15234 l 0,-3.39844 -0.0391,0 q -0.9961,2.03125 -2.73438,3.06641 -1.73828,1.01562 -4.0625,1.01562 -3.88672,0 -5.72266,-2.57812 -1.8164,-2.57813 -1.8164,-8.10547 0,-5.60547 1.95312,-8.26172 1.97266,-2.67578 5.97657,-2.67578 2.24609,0 3.88671,1.03515 1.66016,1.01563 2.5586,2.91016 l 0.0391,0 q 0,-0.58594 0.0781,-2.03125 0.0781,-1.44531 0.15625,-1.58203 l 3.33984,0 q -0.11719,1.05469 -0.11719,4.375 l 0,16.15234 q 0,8.90625 -8.84765,8.90625 z m 5.35156,-18.86719 q 0,-2.57812 -0.70313,-4.43359 -0.70312,-1.875 -1.99218,-2.85156 -1.26954,-0.9961 -2.89063,-0.9961 -2.69531,0 -3.92578,1.95313 -1.23047,1.95312 -1.23047,6.32812 0,4.33594 1.15234,6.23047 1.15235,1.89453 3.94532,1.89453 1.66015,0 2.94922,-0.97656 1.28906,-0.97656 1.99218,-2.79297 0.70313,-1.83593 0.70313,-4.35547 z"
           style=""
           id="path5382" />
        <path
           d="m 211.81445,140.68728 q -3.18359,0 -4.78515,-1.67969 -1.60157,-1.67969 -1.60157,-4.60938 0,-3.28125 2.14844,-5.03906 2.16797,-1.75781 6.97266,-1.875 l 4.74609,-0.0781 0,-1.15235 q 0,-2.57812 -1.09375,-3.6914 -1.09375,-1.11329 -3.4375,-1.11329 -2.36328,0 -3.4375,0.80079 -1.07422,0.80078 -1.28906,2.55859 l -3.67188,-0.33203 q 0.89844,-5.70313 8.47657,-5.70313 3.98437,0 5.99609,1.83594 2.01172,1.81641 2.01172,5.27344 l 0,9.10156 q 0,1.5625 0.41016,2.36328 0.41015,0.78125 1.5625,0.78125 0.50781,0 1.15234,-0.13672 l 0,2.1875 q -1.32813,0.3125 -2.71484,0.3125 -1.95313,0 -2.85157,-1.01562 -0.8789,-1.03516 -0.99609,-3.22266 l -0.11719,0 q -1.34765,2.42188 -3.14453,3.4375 -1.77734,0.9961 -4.33594,0.9961 z m 0.80078,-2.63672 q 1.9336,0 3.4375,-0.87891 1.50391,-0.87891 2.36329,-2.40234 0.8789,-1.54297 0.8789,-3.16407 l 0,-1.73828 -3.84765,0.0781 q -2.48047,0.0391 -3.76954,0.50781 -1.26953,0.46875 -1.95312,1.44531 -0.68359,0.97657 -0.68359,2.5586 0,1.71875 0.91796,2.65625 0.9375,0.9375 2.65625,0.9375 z"
           style=""
           id="path5384" />
        <path
           d="m 246.56055,129.63259 q 0,11.05469 -7.77344,11.05469 -2.40234,0 -4.00391,-0.85938 -1.58203,-0.87891 -2.57812,-2.8125 l -0.0391,0 q 0,0.60547 -0.0781,1.85547 -0.0781,1.23047 -0.11719,1.42578 l -3.39843,0 q 0.11718,-1.05469 0.11718,-4.35547 l 0,-24.6289 3.51563,0 0,8.26171 q 0,1.26954 -0.0781,2.98829 l 0.0781,0 q 0.97656,-2.03125 2.57812,-2.91016 1.6211,-0.87891 4.00391,-0.87891 4.00391,0 5.87891,2.69532 1.89453,2.69531 1.89453,8.16406 z m -3.69141,0.11719 q 0,-4.4336 -1.17187,-6.34766 -1.17188,-1.91406 -3.8086,-1.91406 -2.96875,0 -4.33594,2.03125 -1.34765,2.03125 -1.34765,6.44531 0,4.16016 1.32812,6.15234 1.32813,1.97266 4.31641,1.97266 2.65625,0 3.82812,-1.95313 1.19141,-1.97265 1.19141,-6.38671 z"
           style=""
           id="path5386" />
        <path
           d="m 253.65039,130.47243 q 0,3.63281 1.50391,5.60547 1.5039,1.97266 4.39453,1.97266 2.28515,0 3.65234,-0.91797 1.38672,-0.91797 1.875,-2.32422 l 3.08594,0.87891 q -1.89453,5 -8.61328,5 -4.6875,0 -7.14844,-2.79297 -2.44141,-2.79297 -2.44141,-8.30078 0,-5.23438 2.44141,-8.02735 2.46094,-2.79297 7.01172,-2.79297 9.31641,0 9.31641,11.23047 l 0,0.46875 -15.07813,0 z m 11.44531,-2.69531 q -0.29297,-3.33984 -1.69922,-4.86328 -1.40625,-1.54297 -4.04296,-1.54297 -2.5586,0 -4.0625,1.71875 -1.48438,1.69922 -1.60157,4.6875 l 11.40625,0 z"
           style=""
           id="path5388" />
        <path
           d="m 294.97852,115.82399 0,24.47266 -3.71094,0 0,-24.47266 -9.45313,0 0,-3.04687 22.61719,0 0,3.04687 -9.45312,0 z"
           style=""
           id="path5390" />
        <path
           d="m 306.30664,130.47243 q 0,3.63281 1.50391,5.60547 1.5039,1.97266 4.39453,1.97266 2.28515,0 3.65234,-0.91797 1.38672,-0.91797 1.875,-2.32422 l 3.08594,0.87891 q -1.89453,5 -8.61328,5 -4.6875,0 -7.14844,-2.79297 -2.44141,-2.79297 -2.44141,-8.30078 0,-5.23438 2.44141,-8.02735 2.46094,-2.79297 7.01172,-2.79297 9.31641,0 9.31641,11.23047 l 0,0.46875 -15.07813,0 z m 11.44531,-2.69531 q -0.29297,-3.33984 -1.69922,-4.86328 -1.40625,-1.54297 -4.04296,-1.54297 -2.5586,0 -4.0625,1.71875 -1.48438,1.69922 -1.60157,4.6875 l 11.40625,0 z"
           style=""
           id="path5392" />
        <path
           d="m 325.95508,140.29665 0,-16.21094 q 0,-2.22656 -0.11719,-4.92187 l 3.32031,0 q 0.15625,3.59375 0.15625,4.3164 l 0.0781,0 q 0.83984,-2.71484 1.93359,-3.71093 1.09375,-0.9961 3.08594,-0.9961 0.70312,0 1.42578,0.19532 l 0,3.22265 q -0.70312,-0.19531 -1.875,-0.19531 -2.1875,0 -3.33984,1.89453 -1.15235,1.875 -1.15235,5.39063 l 0,11.01562 -3.51562,0 z"
           style=""
           id="path5394" />
        <path
           d="m 351.54102,140.29665 0,-13.39844 q 0,-3.0664 -0.83985,-4.23828 -0.83984,-1.17187 -3.02734,-1.17187 -2.2461,0 -3.55469,1.71875 -1.30859,1.71875 -1.30859,4.84375 l 0,12.24609 -3.4961,0 0,-16.62109 q 0,-3.69141 -0.11718,-4.51172 l 3.32031,0 q 0.0195,0.0977 0.0391,0.52734 0.0195,0.42969 0.0391,0.9961 0.0391,0.54687 0.0781,2.08984 l 0.0586,0 q 1.13281,-2.24609 2.59766,-3.125 1.46484,-0.87891 3.57422,-0.87891 2.40234,0 3.78906,0.95703 1.40625,0.95704 1.95312,3.04688 l 0.0586,0 q 1.09375,-2.12891 2.63672,-3.06641 1.5625,-0.9375 3.76953,-0.9375 3.20312,0 4.64844,1.73828 1.46484,1.73829 1.46484,5.70313 l 0,14.08203 -3.47656,0 0,-13.39844 q 0,-3.0664 -0.83985,-4.23828 -0.83984,-1.17187 -3.02734,-1.17187 -2.30469,0 -3.59375,1.71875 -1.26953,1.69922 -1.26953,4.84375 l 0,12.24609 -3.47656,0 z"
           style=""
           id="path5396" />
        <path
           d="m 372.57617,114.67165 0,-3.35937 3.51563,0 0,3.35937 -3.51563,0 z m 0,25.625 0,-21.13281 3.51563,0 0,21.13281 -3.51563,0 z"
           style=""
           id="path5398" />
        <path
           d="m 394.91992,140.29665 0,-13.39844 q 0,-2.08984 -0.41015,-3.24218 -0.41016,-1.15235 -1.3086,-1.66016 -0.89844,-0.50781 -2.63672,-0.50781 -2.53906,0 -4.0039,1.73828 -1.46485,1.73828 -1.46485,4.82422 l 0,12.24609 -3.51562,0 0,-16.62109 q 0,-3.69141 -0.11719,-4.51172 l 3.32031,0 q 0.0195,0.0977 0.0391,0.52734 0.0195,0.42969 0.0391,0.9961 0.0391,0.54687 0.0781,2.08984 l 0.0586,0 q 1.21093,-2.1875 2.79297,-3.08594 1.60156,-0.91797 3.96484,-0.91797 3.47656,0 5.07812,1.73828 1.6211,1.71875 1.6211,5.70313 l 0,14.08203 -3.53516,0 z"
           style=""
           id="path5400" />
        <path
           d="m 409.1582,140.68728 q -3.18359,0 -4.78515,-1.67969 -1.60157,-1.67969 -1.60157,-4.60938 0,-3.28125 2.14844,-5.03906 2.16797,-1.75781 6.97266,-1.875 l 4.74609,-0.0781 0,-1.15235 q 0,-2.57812 -1.09375,-3.6914 -1.09375,-1.11329 -3.4375,-1.11329 -2.36328,0 -3.4375,0.80079 -1.07422,0.80078 -1.28906,2.55859 l -3.67188,-0.33203 q 0.89844,-5.70313 8.47657,-5.70313 3.98437,0 5.99609,1.83594 2.01172,1.81641 2.01172,5.27344 l 0,9.10156 q 0,1.5625 0.41016,2.36328 0.41015,0.78125 1.5625,0.78125 0.50781,0 1.15234,-0.13672 l 0,2.1875 q -1.32813,0.3125 -2.71484,0.3125 -1.95313,0 -2.85157,-1.01562 -0.8789,-1.03516 -0.99609,-3.22266 l -0.11719,0 q -1.34765,2.42188 -3.14453,3.4375 -1.77734,0.9961 -4.33594,0.9961 z m 0.80078,-2.63672 q 1.9336,0 3.4375,-0.87891 1.50391,-0.87891 2.36329,-2.40234 0.8789,-1.54297 0.8789,-3.16407 l 0,-1.73828 -3.84765,0.0781 q -2.48047,0.0391 -3.76954,0.50781 -1.26953,0.46875 -1.95312,1.44531 -0.68359,0.97657 -0.68359,2.5586 0,1.71875 0.91796,2.65625 0.9375,0.9375 2.65625,0.9375 z"
           style=""
           id="path5402" />
        <path
           d="m 426.0332,140.29665 0,-28.98437 3.51563,0 0,28.98437 -3.51563,0 z"
           style=""
           id="path5404" />
      </g>
    </g>
    <g
       id="g5135">
      <rect
         style="color:#666666;display:inline;overflow:visible;visibility:visible;opacity:1;fill:#666666;fill-opacity:1;fill-rule:nonzero;stroke:none;stroke-width:2;stroke-linecap:round;stroke-linejoin:round;stroke-miterlimit:4;stroke-dasharray:none;stroke-dashoffset:0;stroke-opacity:1;marker:none;enable-background:accumulate"
         id="rect4182"
         width="135.90361"
         height="692.61713"
         x="-1052.3622"
         y="334.00638"
         ry="0"
         transform="scale(-1,1)" />
      <g
         transform="matrix(0,-1.3928648,1.3928648,0,858.11979,1321.683)"
         style="font-style:normal;font-weight:normal;font-size:40px;line-height:125%;font-family:Sans;letter-spacing:0px;word-spacing:0px;fill:#ffffff;fill-opacity:1;stroke:none;stroke-width:1px;stroke-linecap:butt;stroke-linejoin:miter;stroke-opacity:1"
         id="flowRoot4192">
        <path
           d="m 331.36523,101.01149 -3.14453,-8.04687 -12.53906,0 -3.16406,8.04687 -3.86719,0 11.23047,-27.519526 4.23828,0 11.05469,27.519526 -3.8086,0 z m -9.41406,-24.707026 -0.17578,0.546875 q -0.48828,1.621093 -1.44531,4.160156 l -3.51563,9.042969 10.29297,0 -3.53515,-9.082032 q -0.54688,-1.347656 -1.09375,-3.046875 l -0.52735,-1.621093 z"
           style=""
           id="path5407" />
        <path
           d="m 351.4043,101.01149 0,-13.398433 q 0,-2.089843 -0.41016,-3.242187 -0.41016,-1.152344 -1.30859,-1.660156 -0.89844,-0.507813 -2.63672,-0.507813 -2.53906,0 -4.00391,1.738281 -1.46484,1.738282 -1.46484,4.824219 l 0,12.246089 -3.51563,0 0,-16.621089 q 0,-3.691406 -0.11718,-4.511719 l 3.32031,0 q 0.0195,0.09766 0.0391,0.527344 0.0195,0.429688 0.0391,0.996094 0.0391,0.546875 0.0781,2.089844 l 0.0586,0 q 1.21094,-2.1875 2.79297,-3.085938 1.60156,-0.917969 3.96484,-0.917969 3.47657,0 5.07813,1.738282 1.62109,1.71875 1.62109,5.703125 l 0,14.082026 -3.53515,0 z"
           style=""
           id="path5409" />
        <path
           d="m 359.17773,101.01149 0,-2.675776 11.81641,-15.742188 -11.15234,0 0,-2.714844 15.3125,0 0,2.675782 -11.83594,15.742187 12.24609,0 0,2.714839 -16.38672,0 z"
           style=""
           id="path5411" />
        <path
           d="m 382.94727,91.187276 q 0,3.632813 1.5039,5.605469 1.50391,1.972656 4.39453,1.972656 2.28516,0 3.65235,-0.917969 1.38672,-0.917968 1.875,-2.324218 l 3.08593,0.878906 q -1.89453,5 -8.61328,5 -4.6875,0 -7.14843,-2.792969 -2.44141,-2.792969 -2.44141,-8.300781 0,-5.234375 2.44141,-8.027344 2.46093,-2.792969 7.01171,-2.792969 9.31641,0 9.31641,11.230469 l 0,0.46875 -15.07812,0 z m 11.44531,-2.695312 q -0.29297,-3.339844 -1.69922,-4.863282 -1.40625,-1.542968 -4.04297,-1.542968 -2.55859,0 -4.0625,1.71875 -1.48437,1.699218 -1.60156,4.6875 l 11.40625,0 z"
           style=""
           id="path5413" />
        <path
           d="m 402.49805,75.386495 0,-3.359375 3.51562,0 0,3.359375 -3.51562,0 z m 0,25.624995 0,-21.132808 3.51562,0 0,21.132808 -3.51562,0 z"
           style=""
           id="path5415" />
        <path
           d="m 419.43164,109.31228 q -3.45703,0 -5.50781,-1.36719 -2.05078,-1.34766 -2.63672,-3.84766 l 3.53516,-0.50781 q 0.35156,1.46484 1.54296,2.24609 1.21094,0.80078 3.16407,0.80078 5.2539,0 5.2539,-6.15234 l 0,-3.398436 -0.0391,0 q -0.99609,2.03125 -2.73437,3.066406 -1.73829,1.01562 -4.0625,1.01562 -3.88672,0 -5.72266,-2.57812 -1.81641,-2.578125 -1.81641,-8.105469 0,-5.605469 1.95313,-8.261719 1.97265,-2.675781 5.97656,-2.675781 2.24609,0 3.88672,1.035156 1.66016,1.015625 2.55859,2.910157 l 0.0391,0 q 0,-0.585938 0.0781,-2.03125 0.0781,-1.445313 0.15625,-1.582032 l 3.33984,0 q -0.11718,1.054688 -0.11718,4.375 l 0,16.152348 q 0,8.90625 -8.84766,8.90625 z m 5.35156,-18.867191 q 0,-2.578125 -0.70312,-4.433594 -0.70313,-1.875 -1.99219,-2.851563 -1.26953,-0.996093 -2.89062,-0.996093 -2.69532,0 -3.92579,1.953125 -1.23046,1.953125 -1.23046,6.328125 0,4.335937 1.15234,6.230468 1.15234,1.894532 3.94531,1.894532 1.66016,0 2.94922,-0.976563 1.28906,-0.976562 1.99219,-2.792969 0.70312,-1.835937 0.70312,-4.355468 z"
           style=""
           id="path5417" />
        <path
           d="m 436.38477,91.187276 q 0,3.632813 1.5039,5.605469 1.50391,1.972656 4.39453,1.972656 2.28516,0 3.65235,-0.917969 1.38672,-0.917968 1.875,-2.324218 l 3.08593,0.878906 q -1.89453,5 -8.61328,5 -4.6875,0 -7.14843,-2.792969 -2.44141,-2.792969 -2.44141,-8.300781 0,-5.234375 2.44141,-8.027344 2.46093,-2.792969 7.01171,-2.792969 9.31641,0 9.31641,11.230469 l 0,0.46875 -15.07812,0 z m 11.44531,-2.695312 q -0.29297,-3.339844 -1.69922,-4.863282 -1.40625,-1.542968 -4.04297,-1.542968 -2.55859,0 -4.0625,1.71875 -1.48437,1.699218 -1.60156,4.6875 l 11.40625,0 z"
           style=""
           id="path5419" />
        <path
           d="m 477.71289,76.538839 0,24.472651 -3.71094,0 0,-24.472651 -9.45312,0 0,-3.046875 22.61719,0 0,3.046875 -9.45313,0 z"
           style=""
           id="path5421" />
        <path
           d="m 489.04102,91.187276 q 0,3.632813 1.5039,5.605469 1.50391,1.972656 4.39453,1.972656 2.28516,0 3.65235,-0.917969 1.38672,-0.917968 1.875,-2.324218 l 3.08593,0.878906 q -1.89453,5 -8.61328,5 -4.6875,0 -7.14843,-2.792969 -2.44141,-2.792969 -2.44141,-8.300781 0,-5.234375 2.44141,-8.027344 2.46093,-2.792969 7.01171,-2.792969 9.31641,0 9.31641,11.230469 l 0,0.46875 -15.07812,0 z m 11.44531,-2.695312 q -0.29297,-3.339844 -1.69922,-4.863282 -1.40625,-1.542968 -4.04297,-1.542968 -2.55859,0 -4.0625,1.71875 -1.48437,1.699218 -1.60156,4.6875 l 11.40625,0 z"
           style=""
           id="path5423" />
        <path
           d="m 508.68945,101.01149 0,-16.210933 q 0,-2.226562 -0.11718,-4.921875 l 3.32031,0 q 0.15625,3.59375 0.15625,4.316407 l 0.0781,0 q 0.83985,-2.714844 1.9336,-3.710938 1.09375,-0.996094 3.08593,-0.996094 0.70313,0 1.42579,0.195313 l 0,3.222656 q -0.70313,-0.195312 -1.875,-0.195312 -2.1875,0 -3.33985,1.894531 -1.15234,1.875 -1.15234,5.390625 l 0,11.01562 -3.51563,0 z"
           style=""
           id="path5425" />
        <path
           d="m 534.27539,101.01149 0,-13.398433 q 0,-3.066406 -0.83984,-4.238281 -0.83985,-1.171875 -3.02735,-1.171875 -2.24609,0 -3.55468,1.71875 -1.3086,1.71875 -1.3086,4.84375 l 0,12.246089 -3.49609,0 0,-16.621089 q 0,-3.691406 -0.11719,-4.511719 l 3.32031,0 q 0.0195,0.09766 0.0391,0.527344 0.0195,0.429688 0.0391,0.996094 0.0391,0.546875 0.0781,2.089844 l 0.0586,0 q 1.13281,-2.246094 2.59765,-3.125 1.46485,-0.878907 3.57422,-0.878907 2.40235,0 3.78906,0.957032 1.40625,0.957031 1.95313,3.046875 l 0.0586,0 q 1.09375,-2.128907 2.63672,-3.066407 1.5625,-0.9375 3.76953,-0.9375 3.20313,0 4.64844,1.738282 1.46484,1.738281 1.46484,5.703125 l 0,14.082026 -3.47656,0 0,-13.398433 q 0,-3.066406 -0.83984,-4.238281 -0.83985,-1.171875 -3.02735,-1.171875 -2.30468,0 -3.59375,1.71875 -1.26953,1.699219 -1.26953,4.84375 l 0,12.246089 -3.47656,0 z"
           style=""
           id="path5427" />
        <path
           d="m 555.31055,75.386495 0,-3.359375 3.51562,0 0,3.359375 -3.51562,0 z m 0,25.624995 0,-21.132808 3.51562,0 0,21.132808 -3.51562,0 z"
           style=""
           id="path5429" />
        <path
           d="m 577.6543,101.01149 0,-13.398433 q 0,-2.089843 -0.41016,-3.242187 -0.41016,-1.152344 -1.30859,-1.660156 -0.89844,-0.507813 -2.63672,-0.507813 -2.53906,0 -4.00391,1.738281 -1.46484,1.738282 -1.46484,4.824219 l 0,12.246089 -3.51563,0 0,-16.621089 q 0,-3.691406 -0.11718,-4.511719 l 3.32031,0 q 0.0195,0.09766 0.0391,0.527344 0.0195,0.429688 0.0391,0.996094 0.0391,0.546875 0.0781,2.089844 l 0.0586,0 q 1.21094,-2.1875 2.79297,-3.085938 1.60156,-0.917969 3.96484,-0.917969 3.47657,0 5.07813,1.738282 1.62109,1.71875 1.62109,5.703125 l 0,14.082026 -3.53515,0 z"
           style=""
           id="path5431" />
        <path
           d="m 591.89258,101.40212 q -3.1836,0 -4.78516,-1.679688 -1.60156,-1.679687 -1.60156,-4.609375 0,-3.28125 2.14844,-5.039062 2.16797,-1.757813 6.97265,-1.875 l 4.7461,-0.07813 0,-1.152344 q 0,-2.578125 -1.09375,-3.691406 -1.09375,-1.113281 -3.4375,-1.113281 -2.36328,0 -3.4375,0.800781 -1.07422,0.800781 -1.28907,2.558594 l -3.67187,-0.332032 q 0.89844,-5.703125 8.47656,-5.703125 3.98438,0 5.9961,1.835938 2.01171,1.816406 2.01171,5.273437 l 0,9.101563 q 0,1.5625 0.41016,2.363281 0.41016,0.78125 1.5625,0.78125 0.50781,0 1.15234,-0.136719 l 0,2.187503 q -1.32812,0.3125 -2.71484,0.3125 -1.95312,0 -2.85156,-1.01563 -0.87891,-1.035154 -0.9961,-3.222654 l -0.11718,0 q -1.34766,2.421875 -3.14453,3.437504 -1.77735,0.99609 -4.33594,0.99609 z m 0.80078,-2.636719 q 1.93359,0 3.4375,-0.878906 1.50391,-0.878906 2.36328,-2.402344 0.87891,-1.542969 0.87891,-3.164062 l 0,-1.738282 -3.84766,0.07813 q -2.48047,0.03906 -3.76953,0.507813 -1.26953,0.46875 -1.95313,1.445312 -0.68359,0.976563 -0.68359,2.558594 0,1.71875 0.91797,2.65625 0.9375,0.9375 2.65625,0.9375 z"
           style=""
           id="path5433" />
        <path
           d="m 608.76758,101.01149 0,-28.98437 3.51562,0 0,28.98437 -3.51562,0 z"
           style=""
           id="path5435" />
      </g>
    </g>
  </g>
</svg>
